<svg width="108" height="32" viewBox="0 0 108 32" fill="none" xmlns="http://www.w3.org/2000/svg">
<path d="M66.6817 28.1458L58.4018 16.0018L66.6817 3.85449H73.63L65.351 16.0018L73.6307 28.1458H66.6817ZM57.486 28.1458H51.5509V3.89927L57.486 3.83891V28.1458ZM42.3552 28.1458H35.4062L43.6859 16.0018L35.4069 3.85449H42.3552L50.6354 16.0018L42.3552 28.1458ZM85.2521 28.1484V28.1228C82.0587 27.9962 79.3359 26.8256 77.1478 24.6383C74.7805 22.2085 73.6355 19.3847 73.6355 16.0018C73.6355 12.6945 74.8062 9.80741 77.1478 7.41625C79.5141 5.05072 82.4278 3.85449 85.8371 3.85449C89.1199 3.85449 91.9959 4.96115 94.4002 7.13617C94.4894 7.22542 94.5914 7.31434 94.6803 7.39061L90.4941 11.4989C89.3618 10.265 87.7334 9.52734 85.8371 9.52734C82.2369 9.52734 79.5265 12.3131 79.5265 16.0018C79.5265 19.6901 82.2369 22.4633 85.8371 22.4633L95.6104 22.4756L108 0H22.0025C19.3119 0 16.8336 1.46332 15.535 3.81911L14.7231 5.29152V21.229L25.5255 3.83891H33.2263V28.1098H27.3035V11.9039L17.2374 28.1098H8.80067V16.0352L0 32H83.6802C86.9672 32 90.0302 30.5568 92.1511 28.1484H85.2521Z" fill="#1F75FE"/>
</svg>
